HIERARCHY
ROOT root
{
	OFFSET	0	13.1	24.9
	CHANNELS 6  Xposition Yposition Zposition Xrotation Yrotation Zrotation
	JOINT spine_1
	{
		OFFSET	0	9.99999	0
		CHANNELS 3  Xrotation Yrotation Zrotation
		JOINT spine_2
		{
			OFFSET	0	112	-10
			CHANNELS 3  Xrotation Yrotation Zrotation
			JOINT spine_3
			{
				OFFSET	0	206.5	19.3
				CHANNELS 3  Xrotation Yrotation Zrotation
				JOINT spine_4
				{
					OFFSET	0	110.4	14.6
					CHANNELS 3  Xrotation Yrotation Zrotation
					JOINT neck_1
					{
						OFFSET	0	71.8	-50.3
						CHANNELS 3  Xrotation Yrotation Zrotation
						JOINT neck_2
						{
							OFFSET	0	86.2	-25.8
							CHANNELS 3  Xrotation Yrotation Zrotation
							JOINT head_ee
							{
								OFFSET	0	179.8	-8.7
								CHANNELS 3  Xrotation Yrotation Zrotation
								End Site
								{
									OFFSET	1	0	0
								}
							}
						}
					}
					JOINT left_clavicle
					{
						OFFSET	-43.2	22.4	-70.8
						CHANNELS 3  Xrotation Yrotation Zrotation
						JOINT left_shoulder
						{
							OFFSET	-93.9	-5.79999	48.7
							CHANNELS 3  Xrotation Yrotation Zrotation
							JOINT left_elbow
							{
								OFFSET	-291.4	-30.8	15.2
								CHANNELS 3  Xrotation Yrotation Zrotation
								JOINT left_lowarm_twist
								{
									OFFSET	-110.7	-3.89999	13.6
									CHANNELS 3  Xrotation Yrotation Zrotation
									JOINT left_hand
									{
										OFFSET	-110.7	-3.89999	13.6
										CHANNELS 3  Xrotation Yrotation Zrotation
										JOINT left_ee
										{
											OFFSET	-80.8	-5.10001	12.1
											CHANNELS 3  Xrotation Yrotation Zrotation
											End Site
											{
												OFFSET	1	0	0
											}
										}
									}
								}
							}
						}
					}
					JOINT right_clavicle
					{
						OFFSET	43.2	22.4	-70.8
						CHANNELS 3  Xrotation Yrotation Zrotation
						JOINT right_shoulder
						{
							OFFSET	93.9	-5.79999	48.7
							CHANNELS 3  Xrotation Yrotation Zrotation
							JOINT right_elbow
							{
								OFFSET	291.4	-30.8	15.2
								CHANNELS 3  Xrotation Yrotation Zrotation
								JOINT right_lowarm_twist
								{
									OFFSET	110.7	-3.89999	13.6
									CHANNELS 3  Xrotation Yrotation Zrotation
									JOINT right_hand
									{
										OFFSET	110.7	-3.89999	13.6
										CHANNELS 3  Xrotation Yrotation Zrotation
										JOINT right_ee
										{
											OFFSET	80.8	-5.10001	12.1
											CHANNELS 3  Xrotation Yrotation Zrotation
											End Site
											{
												OFFSET	1	0	0
											}
										}
									}
								}
							}
						}
					}
				}
			}
		}
	}
	JOINT left_hip
	{
		OFFSET	-82.8	-127.5	0.300001
		CHANNELS 3  Xrotation Yrotation Zrotation
		JOINT left_knee
		{
			OFFSET	-28.2	-396.7	2.2
			CHANNELS 3  Xrotation Yrotation Zrotation
			JOINT left_ankle
			{
				OFFSET	-11.7	-411.3	35.4
				CHANNELS 3  Xrotation Yrotation Zrotation
				JOINT left_toes
				{
					OFFSET	0	-60	-88.6
					CHANNELS 3  Xrotation Yrotation Zrotation
					JOINT left_foot_ee
					{
						OFFSET	-22.5	-16.5	-42.2
						CHANNELS 3  Xrotation Yrotation Zrotation
						End Site
						{
							OFFSET	1	0	0
						}
					}
				}
			}
		}
	}
	JOINT right_hip
	{
		OFFSET	82.8	-127.5	0.300001
		CHANNELS 3  Xrotation Yrotation Zrotation
		JOINT right_knee
		{
			OFFSET	28.2	-396.7	2.2
			CHANNELS 3  Xrotation Yrotation Zrotation
			JOINT right_ankle
			{
				OFFSET	11.7	-411.3	35.4
				CHANNELS 3  Xrotation Yrotation Zrotation
				JOINT right_toes
				{
					OFFSET	0	-60	-88.6
					CHANNELS 3  Xrotation Yrotation Zrotation
					JOINT right_foot_ee
					{
						OFFSET	22.5	-16.5	-42.2
						CHANNELS 3  Xrotation Yrotation Zrotation
						End Site
						{
							OFFSET	1	0	0
						}
					}
				}
			}
		}
	}
}
MOTION
Frames: 12
Frame Time: 0.02
1966.82 727.186 -1138.33 -11.1146 57.8696 7.21804 0.168133 0.0741288 -0.398793 0.168216 0.0993546 -0.393268 0.167549 0.17873 -0.364125 0.167383 0.118981 -0.387782 1.69447 17.1 8.64408 2.22777 22.9457 10.8088 -0.0 0.0 -0.0 9.3486 1.6086 18.2477 -4.31567 -17.3979 51.612 4.77228 -67.0482 3.16262 -7.79362 -0.338895 0.936171 -1.12321 -3.25348 -8.96502 -0.0 0.0 -0.0 10.7177 1.01964 -21.2039 -27.8349 23.7087 -49.7231 0.305273 8.59948 -0.0229522 55.8193 1.41619 6.70916 0.767818 -0.65076 -5.40097 0.0 0.0 0.0 -0.90631 -6.29057 12.4918 -13.1762 0.314516 1.99317 41.6962 13.0131 -5.05344 9.13117 -0.0 -0.0 -0.0 0.0 -0.0 40.2794 19.8653 -0.796671 2.64173 0.117766 0.388215 -0.941647 4.96325 -0.141979 -36.1663 0.0 0.0 0.0 0.0 0.0 
1944.78 725.307 -1153.34 -11.2691 58.8076 6.4984 0.172014 0.0743108 -0.278231 0.172053 0.0918646 -0.272938 0.171618 0.146437 -0.247973 0.171548 0.105437 -0.267988 2.24047 16.6527 7.84983 2.75885 22.6528 9.8607 -0.0 0.0 -0.0 9.76058 2.36327 19.0384 -5.89961 -17.2821 52.2638 4.34481 -65.059 2.77188 -9.24063 -0.415702 1.10455 -1.04372 -3.01106 -8.31752 -0.0 0.0 -0.0 10.8548 1.44609 -21.5158 -27.5368 23.8675 -49.6969 0.299369 8.4356 -0.0220779 55.9815 1.42951 6.7251 0.68481 -0.844532 -4.92455 0.0 0.0 0.0 -3.11376 -7.55331 13.4472 -12.8981 0.312642 1.95053 41.585 11.1349 -5.02296 10.5023 -0.0 -0.0 -0.0 0.0 -0.0 41.1153 20.1649 -0.74149 -3.31023 -0.122069 -0.493281 3.48579 6.14195 0.521976 -34.3995 0.0 0.0 0.0 0.0 0.0 
1917.32 717.837 -1161.47 -10.8365 59.453 5.43897 0.222019 0.108784 -0.0291801 0.222013 0.11042 -0.0221988 0.221966 0.112624 0.00106851 0.221984 0.11138 -0.0167318 2.6026 16.3832 7.38914 3.11443 22.4581 9.30431 -0.0 0.0 -0.0 10.0615 2.64477 19.6285 -7.24971 -17.1346 52.8905 4.07473 -63.6268 2.52841 -10.261 -0.472412 1.22211 -0.984331 -2.83691 -7.83775 -0.0 0.0 -0.0 10.8436 1.87515 -21.514 -27.4826 23.9898 -49.5385 0.296446 8.35441 -0.0216512 56.0925 1.43866 6.736 0.630122 -0.94082 -4.59831 0.0 0.0 0.0 -4.51377 -8.45242 14.102 -12.7107 0.311263 1.92182 41.5144 9.78897 -5.00534 11.5436 -0.0 -0.0 -0.0 0.0 -0.0 40.9738 20.5466 -0.370235 -8.1296 -0.248373 -1.22188 6.33151 6.94775 0.943133 -33.1622 0.0 0.0 0.0 0.0 0.0 
1900.18 717.737 -1168.97 -10.7108 59.6594 5.79291 0.307127 0.122858 -0.0340757 0.307119 0.124778 -0.0261888 0.307057 0.127496 -6.17808e-05 0.307079 0.125886 -0.0201967 2.62373 15.8909 6.72797 3.11078 22.1486 8.54243 -0.0 0.0 -0.0 10.2492 3.19603 19.9693 -9.08705 -16.7561 53.4042 3.75437 -61.717 2.24377 -10.9885 -0.514125 1.30531 -0.911218 -2.67754 -7.27227 -0.0 0.0 -0.0 10.8404 2.26611 -21.5259 -27.1623 24.5493 -49.6334 0.347209 9.75944 -0.0296427 56.1994 1.44749 6.74647 0.535021 -1.96476 -4.38283 0.0 0.0 0.0 -5.70664 -9.10143 14.2871 -12.5888 0.310315 1.90313 41.4075 9.16728 -4.99188 12.8717 -0.0 -0.0 -0.0 0.0 -0.0 38.8344 20.8732 0.758863 -13.4613 -0.316223 -2.03688 9.27965 7.45455 1.37137 -31.4703 0.0 0.0 0.0 0.0 0.0 
1867.9 717.519 -1185.32 -9.31133 60.2964 4.23936 0.198461 0.138034 -0.0180727 0.198451 0.138905 -0.00925259 0.198424 0.137816 0.0196714 0.19845 0.139193 -0.00234094 2.75945 15.5504 6.22159 3.23434 21.9426 7.94892 -0.0 0.0 -0.0 10.1137 3.49195 19.675 -11.4331 -16.0249 54.2865 3.23289 -58.0055 1.79255 -11.4645 -0.541992 1.35947 -0.744525 -2.37878 -6.01469 -0.0 0.0 -0.0 10.8596 2.61741 -21.583 -26.9042 24.9587 -49.7675 0.383295 10.7512 -0.0360674 56.3612 1.4609 6.7623 0.393668 -3.87694 -4.22499 0.0 0.0 0.0 -7.70981 -9.65096 14.4755 -13.4002 0.315876 2.02751 41.4058 9.90567 -4.99705 13.9707 -0.0 -0.0 -0.0 0.0 -0.0 38.8398 20.6578 1.14411 -17.1764 -0.318566 -2.60678 11.3347 7.76504 1.66447 -30.3775 0.0 0.0 0.0 0.0 0.0 
1847.16 719.589 -1198.43 -8.81837 60.5909 3.58075 0.377506 0.140068 -0.095018 0.377499 0.14583 -0.0859125 0.377272 0.160275 -0.0543998 0.377299 0.149672 -0.0790295 2.92564 15.1659 5.64092 3.38915 21.717 7.26613 -0.0 0.0 -0.0 10.0336 3.61696 19.5052 -13.1839 -15.4826 55.1374 2.77256 -53.9319 1.41082 -12.0267 -0.575483 1.42313 -0.425306 -1.6069 -3.53162 -0.0 0.0 -0.0 10.9263 2.90444 -21.7381 -26.5115 25.3748 -49.9681 0.411139 11.512 -0.0414429 56.5699 1.47824 6.78264 0.259574 -5.81109 -4.12868 0.0 0.0 0.0 -8.75533 -9.94572 14.3878 -13.9778 0.31876 2.11609 41.0403 10.901 -4.97428 15.5361 -0.0 -0.0 -0.0 0.0 -0.0 36.8118 19.4659 0.760483 -19.8253 -0.297677 -3.01263 17.7014 8.21108 2.53402 -29.4994 0.0 0.0 0.0 0.0 0.0 
1823.06 718.318 -1218.14 -7.20464 60.3469 2.68513 0.341337 0.149738 -0.279723 0.341365 0.167234 -0.269628 0.340566 0.218808 -0.229761 0.340537 0.179775 -0.261434 3.02692 14.4495 5.44563 3.44513 20.5965 7.00369 -0.0 0.0 -0.0 9.95627 4.16997 19.3105 -15.1658 -14.5672 56.1372 2.39454 -49.8604 1.11317 -13.0243 -0.636444 1.53528 -0.212536 -0.892228 -1.79911 -0.0 0.0 -0.0 11.0553 3.10453 -22.0236 -26.0386 25.7872 -50.2497 0.432037 12.0803 -0.0457152 56.299 1.45574 6.75622 0.162974 -7.19581 -4.05958 0.0 0.0 0.0 -8.65569 -9.95657 13.8855 -19.0233 0.305981 2.88986 41.5774 12.316 -5.03486 16.6423 -0.0 -0.0 -0.0 0.0 -0.0 34.9025 17.3271 0.726449 -17.545 -0.316784 -2.66331 21.4213 9.04137 3.02248 -28.8727 0.0 0.0 0.0 0.0 0.0 
1793.84 712.346 -1235.14 -5.14401 60.4671 1.07381 0.39037 0.29074 -0.126182 0.390329 0.29818 -0.107425 0.389741 0.313802 -0.0444897 0.389866 0.302838 -0.093491 2.04 13.4762 5.34913 2.37885 19.2073 6.92723 -0.0 0.0 -0.0 9.90557 5.29733 19.1236 -17.0418 -13.8245 57.0705 2.12309 -46.4381 0.910879 -15.2947 -0.782434 1.78651 -0.128775 0.0682874 -0.831002 -0.0 0.0 -0.0 11.2002 3.47259 -22.3517 -24.5189 25.8457 -50.4983 0.419905 11.7507 -0.0432105 56.7469 1.49302 6.79985 -0.0653677 -9.91865 -3.68971 0.0 0.0 0.0 -6.93186 -9.69239 12.5991 -24.2068 0.222029 3.68056 41.156 14.0165 -5.02038 17.0261 -0.0 -0.0 -0.0 0.0 -0.0 28.984 15.4931 0.634394 -14.1218 -0.31934 -2.13817 28.8667 10.206 3.92577 -27.6091 0.0 0.0 0.0 0.0 0.0 
1770.14 715.114 -1259.08 -1.65323 61.0921 -2.10654 0.326242 0.238711 0.00993726 0.32621 0.237595 0.025107 0.326306 0.227432 0.0731887 0.326376 0.236136 0.0363514 1.00014 12.7292 4.80904 1.28531 18.5749 6.3749 -0.0 0.0 -0.0 10.4449 6.49733 20.0766 -20.0479 -12.3585 55.0991 1.82895 -42.1728 0.705285 -16.0537 -0.833451 1.86919 0.13782 0.585796 1.16565 -0.0 0.0 -0.0 11.2816 3.49636 -22.5287 -22.4967 26.3075 -51.4293 0.437637 12.2322 -0.0468946 57.3617 1.54475 6.85928 -0.541669 -13.2034 -2.02283 0.0 0.0 0.0 -7.33962 -10.7678 10.8621 -30.9271 0.00743989 4.68901 41.6419 15.6807 -5.08833 18.908 -0.0 -0.0 -0.0 0.0 -0.0 27.7435 13.743 -0.902249 -18.2959 -0.312027 -2.77842 38.4211 9.00437 4.86522 -26.7225 0.0 0.0 0.0 0.0 0.0 
1752.52 719.927 -1269.94 -0.666946 61.3541 -2.67031 0.258661 0.258876 0.11131 0.258632 0.251269 0.127558 0.259197 0.219649 0.176526 0.259237 0.244771 0.139621 0.284556 12.1376 4.29257 0.531915 18.0988 5.83332 -0.0 0.0 -0.0 10.2314 7.13469 19.5974 -22.7416 -11.4019 54.1684 1.60634 -38.5076 0.561112 -16.2671 -0.847993 1.89232 0.3466 1.10695 2.77442 -0.0 0.0 -0.0 11.3901 3.96676 -22.784 -20.0252 27.0633 -52.3804 0.449971 12.5662 -0.049543 58.4818 1.64064 6.96612 -0.92051 -15.8814 -0.809973 0.0 0.0 0.0 -6.35738 -11.2703 9.82057 -33.5601 -0.108678 5.07631 38.9556 17.3992 -4.87739 19.8386 -0.0 -0.0 -0.0 0.0 -0.0 23.7995 12.1735 -2.33369 -21.3648 -0.276922 -3.24794 41.7296 4.34051 5.06719 -19.6193 0.0 0.0 0.0 0.0 0.0 
1731.09 723.165 -1283.66 1.93198 61.1125 -4.74466 0.160833 0.304923 0.370649 0.160865 0.280719 0.389301 0.162841 0.193882 0.439053 0.162667 0.260789 0.402924 0.0358013 11.8067 3.83902 0.267637 17.9285 5.3388 -0.0 0.0 -0.0 10.0956 7.72882 19.2768 -25.2458 -10.5511 53.9773 1.43508 -35.4068 0.458109 -16.8085 -0.885274 1.95076 0.437331 2.36305 3.89582 -0.0 0.0 -0.0 11.5017 5.02655 -23.0686 -18.2232 27.5578 -53.0645 0.472283 13.168 -0.0545116 59.9083 1.76577 7.09946 -1.1559 -17.7886 -0.208456 0.0 0.0 0.0 -3.83445 -11.3394 8.26412 -37.742 -0.329397 5.67956 36.3668 19.0857 -4.66036 20.0686 -0.0 -0.0 -0.0 0.0 -0.0 20.9158 10.4122 -3.06788 -23.4844 -0.238017 -3.57085 40.4427 0.319538 4.91618 -14.1407 0.0 0.0 0.0 0.0 0.0 
1717.03 725.36 -1295.57 2.55893 60.9655 -5.43986 0.136726 0.372549 0.511974 0.136808 0.339217 0.534642 0.140099 0.220736 0.593451 0.139743 0.311689 0.551144 -0.222679 11.5683 3.51886 -0.0033165 17.8121 4.99847 -0.0 0.0 -0.0 9.80379 8.25684 18.6672 -27.4013 -9.71635 53.7298 1.31276 -33.0345 0.389304 -17.187 -0.911661 1.99139 0.49808 3.26481 4.66747 -0.0 0.0 -0.0 11.5902 5.88489 -23.2913 -16.5707 28.0702 -53.3923 0.487975 13.5895 -0.0581426 60.9255 1.85701 7.19264 -1.32205 -19.0596 0.22442 0.0 0.0 0.0 -2.19791 -11.5475 7.25386 -41.0725 -0.536407 6.14776 34.5488 20.2351 -4.49885 20.2421 -0.0 -0.0 -0.0 0.0 -0.0 18.8268 9.08464 -3.7952 -24.4323 -0.216756 -3.71475 39.7134 -2.65975 4.83692 -10.2713 0.0 0.0 0.0 0.0 0.0 
